<svg width="40" height="36" viewBox="0 0 40 36" fill="none" xmlns="http://www.w3.org/2000/svg">
<g clip-path="url(#clip0_1_19)">
<path d="M21.962 22.296C20.916 22.9224 19.7192 23.2521 18.5 23.25C17.6134 23.2512 16.7353 23.0772 15.9162 22.7379C15.0971 22.3986 14.3531 21.9008 13.727 21.273C13.0992 20.6469 12.6014 19.9029 12.2621 19.0838C11.9228 18.2647 11.7488 17.3866 11.75 16.5C11.75 14.636 12.505 12.949 13.727 11.727C14.3531 11.0992 15.0971 10.6014 15.9162 10.2621C16.7353 9.92284 17.6134 9.7488 18.5 9.75001C20.364 9.75001 22.051 10.505 23.273 11.727C23.9008 12.3531 24.3986 13.0971 24.7379 13.9162C25.0772 14.7353 25.2512 15.6134 25.25 16.5C25.2517 17.6974 24.9338 18.8736 24.329 19.907C23.812 20.789 23.895 21.895 24.618 22.618L28.471 26.471" stroke="#111111" stroke-width="1.5"/>
</g>
<defs>
<clipPath id="clip0_1_19">
<rect width="24" height="24" fill="white" transform="translate(8 6)"/>
</clipPath>
</defs>
</svg>
